<?xml version="1.0"?>
<svg width="24" height="24" xmlns="http://www.w3.org/2000/svg" xmlns:svg="http://www.w3.org/2000/svg">
 <title>Steamworks icon</title>

 <g class="layer">
  <title>Layer 1</title>
  <rect fill="#181d26" height="24" id="svg_2" rx="5" ry="5" width="24" x="0" y="0"/>
  <path d="m21.18,9.28l0,1.9l-1.37,0l0,1.38l1.37,0l0,-1.38l1.89,0l0,-1.9l-1.89,0zm-5.41,0.46l0,0.98l0.99,0l0,-0.98l-0.99,0zm2.13,2.36a0.55,0.55 0 0 0 -0.35,0.13a0.46,0.46 0 0 0 -0.15,0.36a0.4,0.4 0 0 0 0.14,0.32a0.58,0.58 0 0 0 0.3,0.13l0.09,0.01l0.1,0.02a0.98,0.98 0 0 1 0.15,0.04a0.34,0.34 0 0 1 0.1,0.06a0.31,0.31 0 0 1 0.09,0.25a0.32,0.32 0 0 1 -0.12,0.27a0.48,0.49 0 0 1 -0.32,0.1a0.68,0.68 0 0 1 -0.26,-0.05a0.69,0.69 0 0 1 -0.22,-0.17l-0.09,0.09a0.72,0.72 0 0 0 0.25,0.18a0.79,0.8 0 0 0 0.31,0.06a0.62,0.62 0 0 0 0.42,-0.14a0.47,0.47 0 0 0 0.16,-0.36a0.48,0.49 0 0 0 -0.04,-0.18a0.38,0.39 0 0 0 -0.11,-0.15a0.43,0.43 0 0 0 -0.12,-0.07a0.77,0.77 0 0 0 -0.18,-0.05l-0.1,-0.02l-0.08,-0.01a0.75,0.75 0 0 1 -0.14,-0.05a0.44,0.44 0 0 1 -0.11,-0.06a0.29,0.29 0 0 1 -0.09,-0.23a0.35,0.35 0 0 1 0.1,-0.27a0.4,0.4 0 0 1 0.29,-0.09a0.57,0.57 0 0 1 0.23,0.04a0.69,0.69 0 0 1 0.17,0.12l0.08,-0.08a0.65,0.65 0 0 0 -0.48,-0.19a0.55,0.55 0 0 0 -0.03,0zm-16.13,0a0.61,0.61 0 0 0 -0.4,0.16a0.49,0.5 0 0 0 -0.16,0.39a0.48,0.48 0 0 0 0.12,0.34a0.55,0.55 0 0 0 0.33,0.15l0.11,0.01l0.09,0.02a0.26,0.26 0 0 1 0.16,0.06a0.21,0.21 0 0 1 0.05,0.15c0,0.15 -0.1,0.22 -0.3,0.22a0.71,0.72 0 0 1 -0.23,-0.04a0.43,0.43 0 0 1 -0.18,-0.11l-0.21,0.22a0.69,0.7 0 0 0 0.27,0.17a1.06,1.06 0 0 0 0.35,0.06a0.69,0.7 0 0 0 0.45,-0.15a0.48,0.49 0 0 0 0.17,-0.39a0.49,0.5 0 0 0 -0.13,-0.37a0.44,0.44 0 0 0 -0.14,-0.09a0.9,0.91 0 0 0 -0.19,-0.05l-0.09,-0.01l-0.11,-0.02a0.26,0.27 0 0 1 -0.15,-0.07a0.17,0.17 0 0 1 -0.05,-0.12a0.2,0.2 0 0 1 0.06,-0.16a0.27,0.28 0 0 1 0.2,-0.06a0.7,0.71 0 0 1 0.18,0.03a0.36,0.36 0 0 1 0.16,0.09l0.21,-0.21a0.66,0.66 0 0 0 -0.24,-0.16a0.9,0.9 0 0 0 -0.31,-0.05a0.61,0.61 0 0 0 -0.03,0l0,-0.01zm11.05,0.01a0.56,0.56 0 0 0 -0.22,0.05a0.59,0.6 0 0 0 -0.19,0.13a0.48,0.49 0 0 0 -0.09,0.13a0.56,0.56 0 0 0 -0.05,0.14a1.27,1.28 0 0 0 -0.02,0.17a7.66,7.69 0 0 0 0,0.55a1.2,1.2 0 0 0 0.02,0.17a0.56,0.56 0 0 0 0.05,0.14a0.45,0.45 0 0 0 0.09,0.12a0.59,0.6 0 0 0 0.19,0.14a0.6,0.61 0 0 0 0.23,0.05a0.56,0.56 0 0 0 0.23,-0.05a0.59,0.6 0 0 0 0.19,-0.14a0.48,0.49 0 0 0 0.09,-0.12a0.56,0.56 0 0 0 0.05,-0.14a1.27,1.28 0 0 0 0.02,-0.17a7.64,7.67 0 0 0 0,-0.55a1.19,1.19 0 0 0 -0.02,-0.17a0.56,0.56 0 0 0 -0.05,-0.14a0.45,0.45 0 0 0 -0.09,-0.13a0.59,0.6 0 0 0 -0.19,-0.13a0.6,0.61 0 0 0 -0.23,-0.05a0.56,0.56 0 0 0 -0.01,0zm-10,0.01l0,0.31l0.44,0l0,1.44l0.33,0l0,-1.44l0.44,0l0,-0.31l-1.21,0zm1.72,0l0,1.75l1.11,0l0,-0.3l-0.78,0l0,-0.42l0.67,0l0,-0.31l-0.67,0l0,-0.4l0.78,0l0,-0.31l-1.11,0zm2.09,0l-0.61,1.75l0.35,0l0.1,-0.31l0.59,0l0.1,0.31l0.35,0l-0.61,-1.75l-0.26,0zm1.32,0l0,1.75l0.33,0l0,-1.02l0.32,0.66l0.22,0l0.33,-0.66l0,1.02l0.33,0l0,-1.75l-0.33,0l-0.44,0.94l-0.44,-0.94l-0.32,0zm2,0l0.42,1.75l0.14,0l0.39,-1.52l0.4,1.52l0.13,0l0.42,-1.75l-0.13,0l-0.36,1.52l-0.39,-1.52l-0.14,0l-0.39,1.52l-0.36,-1.52l-0.14,0zm4.07,0l0,1.75l0.13,0l0,-0.81l0.46,0l0.4,0.81l0.16,0l-0.41,-0.81a0.45,0.45 0 0 0 0.39,-0.48a0.45,0.45 0 0 0 -0.14,-0.34a0.5,0.5 0 0 0 -0.35,-0.13l-0.64,0zm1.76,0l0,1.75l0.13,0l0,-0.47l0.4,-0.51l0.54,0.98l0,0l0.16,0l-0.61,-1.08l0.52,-0.67l-0.16,0l-0.85,1.1l0,-1.1l-0.13,0zm2.91,0.04l0,0.17l0.03,0l0,-0.12l0.04,0.08l0.03,0l0.04,-0.08l0,0.12l0.03,0l0,-0.17l-0.03,0l-0.05,0.1l-0.05,-0.1l-0.03,0zm-0.15,0l0,0.02l0.05,0l0,0.16l0.03,0l0,-0.16l0.05,0l0,-0.02l-0.12,0zm-5.72,0.07a0.45,0.45 0 0 1 0.32,0.14a0.41,0.41 0 0 1 0.07,0.09a0.45,0.45 0 0 1 0.04,0.12a1.02,1.03 0 0 1 0.02,0.17a6.83,6.86 0 0 1 0,0.51a1.02,1.03 0 0 1 -0.02,0.16a0.45,0.45 0 0 1 -0.04,0.12a0.47,0.47 0 0 1 -0.07,0.1a0.45,0.45 0 0 1 -0.64,0a0.41,0.41 0 0 1 -0.07,-0.1a0.54,0.54 0 0 1 -0.04,-0.12a1.02,1.03 0 0 1 -0.02,-0.16a6.82,6.84 0 0 1 0,-0.51a1.02,1.03 0 0 1 0.02,-0.17a0.45,0.45 0 0 1 0.04,-0.12a0.47,0.47 0 0 1 0.07,-0.09a0.45,0.45 0 0 1 0.32,-0.14zm1.84,0.01a0.39,0.39 0 0 1 0.25,0.09a0.32,0.32 0 0 1 0.1,0.27a0.33,0.33 0 0 1 -0.1,0.27a0.39,0.39 0 0 1 -0.26,0.08l-0.5,0l0,-0.71l0.5,0a0.39,0.39 0 0 1 0.02,0zm-7.9,0.4l0.21,0.63l-0.42,0l0.21,-0.63z" fill="#ffffff" id="svg_1"/>
 </g>
</svg>