<?xml version="1.0"?>
<svg width="24" height="24" xmlns="http://www.w3.org/2000/svg" xmlns:svg="http://www.w3.org/2000/svg">
 <title>Steamworks icon</title>
 <g class="layer">
  <title>Layer 1</title>
  <rect fill="#181d26" height="24" id="svg_2" rx="5" ry="5" transform="matrix(1 0 0 1 0 0)" width="24" y="0.1"/>
  <path d="m17.03,5.19l0,5.33l-3.84,0l0,3.87l3.84,0l0,-3.87l5.3,0l0,-5.33l-5.3,0zm-15.17,1.29l0,2.75l2.78,0l0,-2.75l-2.78,0z" fill="#ffffff" id="svg_1"/>
  <path d="m24.23,18.23zm-5.78,1.62a0.97,0.97 0 0 0 -0.62,0.23a0.81,0.81 0 0 0 -0.26,0.63a0.7,0.7 0 0 0 0.25,0.56a1.02,1.02 0 0 0 0.53,0.23l0.16,0.02l0.18,0.04a1.73,1.73 0 0 1 0.26,0.07a0.6,0.6 0 0 1 0.18,0.11a0.55,0.55 0 0 1 0.16,0.44a0.56,0.56 0 0 1 -0.21,0.48a0.85,0.86 0 0 1 -0.56,0.18a1.2,1.2 0 0 1 -0.46,-0.09a1.22,1.22 0 0 1 -0.39,-0.3l-0.16,0.16a1.27,1.27 0 0 0 0.44,0.32a1.39,1.41 0 0 0 0.55,0.11a1.09,1.09 0 0 0 0.74,-0.25a0.83,0.83 0 0 0 0.28,-0.63a0.85,0.86 0 0 0 -0.07,-0.32a0.67,0.69 0 0 0 -0.19,-0.26a0.76,0.76 0 0 0 -0.21,-0.12a1.36,1.36 0 0 0 -0.32,-0.09l-0.18,-0.04l-0.14,-0.02a1.32,1.32 0 0 1 -0.25,-0.09a0.77,0.77 0 0 1 -0.19,-0.11a0.51,0.51 0 0 1 -0.16,-0.41a0.62,0.62 0 0 1 0.18,-0.48a0.7,0.7 0 0 1 0.51,-0.16a1,1 0 0 1 0.41,0.07a1.22,1.22 0 0 1 0.3,0.21l0.14,-0.14a1.14,1.14 0 0 0 -0.85,-0.33a0.97,0.97 0 0 0 -0.05,0l0.02,-0.02zm-8.95,0.02a0.99,0.99 0 0 0 -0.39,0.09a1.04,1.06 0 0 0 -0.33,0.23a0.85,0.86 0 0 0 -0.16,0.23a0.99,0.99 0 0 0 -0.09,0.25a2.24,2.25 0 0 0 -0.04,0.3a13.49,13.54 0 0 0 0,0.97a2.11,2.11 0 0 0 0.04,0.3a0.99,0.99 0 0 0 0.09,0.25a0.79,0.79 0 0 0 0.16,0.21a1.04,1.06 0 0 0 0.33,0.25a1.06,1.07 0 0 0 0.41,0.09a0.99,0.99 0 0 0 0.41,-0.09a1.04,1.06 0 0 0 0.33,-0.25a0.85,0.86 0 0 0 0.16,-0.21a0.99,0.99 0 0 0 0.09,-0.25a2.24,2.25 0 0 0 0.04,-0.3a13.45,13.51 0 0 0 0,-0.97a2.1,2.1 0 0 0 -0.04,-0.3a0.99,0.99 0 0 0 -0.09,-0.25a0.79,0.79 0 0 0 -0.16,-0.23a1.04,1.06 0 0 0 -0.33,-0.23a1.06,1.07 0 0 0 -0.41,-0.09a0.99,0.99 0 0 0 -0.02,0zm-5.05,0.02l0.74,3.08l0.25,0l0.69,-2.68l0.7,2.68l0.23,0l0.74,-3.08l-0.23,0l-0.63,2.68l-0.69,-2.68l-0.25,0l-0.69,2.68l-0.63,-2.68l-0.25,0l0.02,0zm7.17,0l0,3.08l0.23,0l0,-1.43l0.81,0l0.7,1.43l0.28,0l-0.72,-1.43a0.79,0.79 0 0 0 0.69,-0.85a0.79,0.79 0 0 0 -0.25,-0.6a0.88,0.88 0 0 0 -0.62,-0.23l-1.13,0l0,0.02zm3.1,0l0,3.08l0.23,0l0,-0.83l0.7,-0.9l0.95,1.73l0,0l0.28,0l-1.07,-1.9l0.92,-1.18l-0.28,0l-1.5,1.94l0,-1.94l-0.23,0zm5.12,0.07l0,0.3l0.05,0l0,-0.21l0.07,0.14l0.05,0l0.07,-0.14l0,0.21l0.05,0l0,-0.3l-0.05,0l-0.09,0.18l-0.09,-0.18l-0.05,0l-0.02,0zm-0.26,0l0,0.04l0.09,0l0,0.28l0.05,0l0,-0.28l0.09,0l0,-0.04l-0.21,0l-0.02,0zm-10.07,0.12a0.79,0.79 0 0 1 0.56,0.25a0.72,0.72 0 0 1 0.12,0.16a0.79,0.79 0 0 1 0.07,0.21a1.8,1.81 0 0 1 0.04,0.3a12.03,12.08 0 0 1 0,0.9a1.8,1.81 0 0 1 -0.04,0.28a0.79,0.79 0 0 1 -0.07,0.21a0.83,0.83 0 0 1 -0.12,0.18a0.79,0.79 0 0 1 -1.13,0a0.72,0.72 0 0 1 -0.12,-0.18a0.95,0.95 0 0 1 -0.07,-0.21a1.8,1.81 0 0 1 -0.04,-0.28a12.01,12.05 0 0 1 0,-0.9a1.8,1.81 0 0 1 0.04,-0.3a0.79,0.79 0 0 1 0.07,-0.21a0.83,0.83 0 0 1 0.12,-0.16a0.79,0.79 0 0 1 0.56,-0.25zm3.24,0.02a0.69,0.69 0 0 1 0.44,0.16a0.56,0.56 0 0 1 0.18,0.48a0.58,0.58 0 0 1 -0.18,0.48a0.69,0.69 0 0 1 -0.46,0.14l-0.88,0l0,-1.25l0.88,0a0.69,0.69 0 0 1 0.04,0l-0.02,0z" fill="#ffffff" id="svg_4" stroke-width="0"/>
  <path d="m37.46,14.73zm-31.14,1.48a0.98,0.98 0 0 0 -0.64,0.26a0.79,0.8 0 0 0 -0.26,0.63a0.77,0.77 0 0 0 0.19,0.55a0.88,0.88 0 0 0 0.53,0.24l0.18,0.02l0.14,0.03a0.42,0.42 0 0 1 0.26,0.1a0.34,0.34 0 0 1 0.08,0.24c0,0.24 -0.16,0.35 -0.48,0.35a1.14,1.15 0 0 1 -0.37,-0.06a0.69,0.69 0 0 1 -0.29,-0.18l-0.34,0.35a1.11,1.12 0 0 0 0.43,0.27a1.7,1.7 0 0 0 0.56,0.1a1.11,1.12 0 0 0 0.72,-0.24a0.77,0.79 0 0 0 0.27,-0.63a0.79,0.8 0 0 0 -0.21,-0.59a0.71,0.71 0 0 0 -0.22,-0.14a1.44,1.46 0 0 0 -0.3,-0.08l-0.14,-0.02l-0.18,-0.03a0.42,0.43 0 0 1 -0.24,-0.11a0.27,0.27 0 0 1 -0.08,-0.19a0.32,0.32 0 0 1 0.1,-0.26a0.43,0.45 0 0 1 0.32,-0.1a1.12,1.14 0 0 1 0.29,0.05a0.58,0.58 0 0 1 0.26,0.14l0.34,-0.34a1.06,1.06 0 0 0 -0.38,-0.26a1.44,1.44 0 0 0 -0.5,-0.08a0.98,0.98 0 0 0 -0.05,0l0,-0.02l0.02,0zm1.68,0.03l0,0.5l0.71,0l0,2.31l0.53,0l0,-2.31l0.71,0l0,-0.5l-1.94,0zm2.76,0l0,2.81l1.78,0l0,-0.48l-1.25,0l0,-0.67l1.07,0l0,-0.5l-1.07,0l0,-0.64l1.25,0l0,-0.5l-1.78,0l0,-0.02zm3.35,0l-0.98,2.81l0.56,0l0.16,-0.5l0.95,0l0.16,0.5l0.56,0l-0.98,-2.81l-0.42,0l-0.02,0zm2.12,0l0,2.81l0.53,0l0,-1.64l0.51,1.06l0.35,0l0.53,-1.06l0,1.64l0.53,0l0,-2.81l-0.53,0l-0.71,1.51l-0.71,-1.51l-0.51,0zm-1.91,0.83l0.34,1.01l-0.67,0l0.34,-1.01z" fill="#ffffff" id="svg_5" stroke-width="0" transform="matrix(1 0 0 1 0 0)"/>
 </g>
</svg>