<?xml version="1.0"?>
<svg width="250" height="250" xmlns="http://www.w3.org/2000/svg" xmlns:svg="http://www.w3.org/2000/svg" enable-background="new 0 0 450 450" version="1.1" xml:space="preserve">
 <g class="layer">
  <title>Layer 1</title>
  <g fill="#000000" font-family="sans-serif" font-size="17.39px" font-style="normal" font-weight="normal" id="g144" stroke-width="1px" transform="matrix(3.05625 0 0 3.05625 -5.44376 -5.43534)">
   <g id="g142">
    <path d="m14,45.63l0,0c-5.38,-3.19 -9.88,-6.88 -9.88,-6.88c-3.25,-3.56 2.25,-1.37 2.25,-1.37l9.44,3.31l-0.12,0.87l-2.75,1.19l1.06,2.88z" fill="#ffffff" fill-rule="evenodd" id="path84" stroke="#000000" stroke-width="1px"/>
    <path d="m21.87,29.94c3.07,-3.13 7.19,-5 13.44,-5.69c5.94,0.06 8.69,-0.25 15.5,3.69c1.81,1.37 5.88,3 4.69,5.81c-1.87,3.69 -1.94,3.44 -2.87,6.81c-0.94,3.38 -0.19,3.07 -1.32,4.63c-2,2.12 -0.56,2 -3.12,3.12c-3.94,-1.62 -3.19,-1.31 -5.38,-1.62c-3.75,-0.31 -3.75,-0.44 -8.43,1.81c-3.13,0.5 -0.69,0.75 -3.88,0.38c-7.62,-3.75 -5.62,-4.94 -9.5,-5.88c-3.87,-0.94 -4.62,-0.12 -5,-1.87c0.13,-3.5 3.25,-8.44 5.88,-11.19l-0.01,0z" fill="#4b8eb4" fill-rule="evenodd" id="path86" stroke="#000000" stroke-width="1px"/>
    <path d="m15.12,46.13c5.3,0.19 6.64,3.82 9.19,5c3.08,0.76 5.03,2.37 8.56,2.5c3.9,-1.88 9.68,-1.69 15.07,-0.19c2.85,0.06 4.19,-1.97 6.75,-7.5c1.36,-4.21 1.59,-8.07 3.68,-10.13c1.22,-0.99 2.1,-2.31 -0.37,-3.31c-2.75,-0.56 -3.92,2.59 -5.38,7.31c-0.86,4.17 -2.55,9.25 -5.5,7.5c-5.19,-1.74 -3.08,-1.18 -5.56,-1.31c-4.63,0.31 -8.39,3.89 -14.44,0.63c-4.47,-3.28 -5.97,-4.11 -11.31,-5.44c-1.18,-0.32 -6.31,0.27 -0.69,4.94z" fill="#ffffff" fill-rule="evenodd" id="path88" stroke="#000000" stroke-width="1px"/>
    <path d="m14.59,46.06c-0.37,0.37 -2.53,2.33 -3.72,4.5c-1.2,2.22 -1.46,4.51 -0.06,7.57c1.1,2.88 4.24,3.21 7.94,4.31c1.57,-0.27 2.72,0.71 4.13,-0.88c1.14,-1.27 1.98,-0.89 0.93,-3.25c-2.19,-3.51 -2.68,-5.78 -0.68,-7.75c-0.57,-1.44 -1.23,-2.16 -4.25,-3.94c-1.09,-0.39 -2.46,-0.8 -4.29,-0.56" fill="#ffffff" fill-rule="evenodd" id="path90" stroke="#000000" stroke-width="1px"/>
    <path d="m26.87,52.25c-0.97,1.29 -0.87,1.45 -0.62,3.19c0.69,1.63 0.44,2.28 3.25,2.63c3.24,-0.99 3.28,-2.94 3.31,-4.38c-3.6,-0.12 -5.31,-1.74 -5.94,-1.44z" fill="#424242" fill-opacity="0.81" fill-rule="evenodd" id="path92" stroke="#000000" stroke-width="1px"/>
    <path d="m32,59.19c0.22,2.34 3.31,3.58 8.12,4.37c3.64,-0.24 6.75,1.44 9.13,-2.12c0.43,-2.65 -0.18,-6.56 -2.19,-8.19c-2.14,-1.87 -9.24,-2.01 -12.37,-0.81c-2.72,1.48 -3.11,4.64 -2.69,6.75z" fill="#ffffff" fill-rule="evenodd" id="path94" stroke="#000000" stroke-width="1px"/>
    <path d="m22.06,54.75c-4.35,-0.62 -7.48,-0.91 -9,5.69c5,2.23 8.32,2.48 9.56,1.56c3.45,-2.43 -0.1,-5.03 -0.56,-7.25z" fill="none" fill-opacity="0.75" fill-rule="evenodd" id="path96" stroke="#000000" stroke-width="1px"/>
    <path d="m48.31,55.5c-3.94,0.21 -7.54,1.59 -9.81,7.31c0.63,0.75 0.85,0.74 1.94,0.82c2.56,-0.13 5.25,0.4 7.12,-0.44c3.2,-2.1 1.24,-7.48 0.69,-7.56" fill="none" fill-opacity="0.75" fill-rule="evenodd" id="path98" stroke="#000000" stroke-width="1px"/>
    <path d="m17.37,54.69c0.99,1.57 2.17,2.91 1.32,7.44" fill="none" fill-opacity="0.75" fill-rule="evenodd" id="path100" stroke="#000000" stroke-width="1px"/>
    <path d="m19.87,54.5c1.12,2.08 2.19,4.1 1.57,7.81" fill="none" fill-opacity="0.75" fill-rule="evenodd" id="path102" stroke="#000000" stroke-width="1px"/>
    <path d="m41.5,57.81c1.38,0.46 3.22,2.27 3.69,5.94" fill="none" fill-opacity="0.75" fill-rule="evenodd" id="path104" stroke="#000000" stroke-width="1px"/>
    <path d="m44.31,56.06c1.59,1.52 3.34,2.66 3.44,6.82" fill="none" fill-opacity="0.75" fill-rule="evenodd" id="path106" stroke="#000000" stroke-width="1px"/>
    <path d="m50.62,52.75c-0.38,3.14 0.98,7.86 4.63,7.88c5.56,0.57 6.94,-1.42 8.25,-3.38c1.02,-3.74 -2.88,-7.69 -5.63,-10.19c-1.09,-0.97 -1.25,-0.93 -2.62,-1c-2.09,0.75 -2.55,6.11 -4.69,6.69" fill="#ffffff" fill-rule="evenodd" id="path108" stroke="#000000" stroke-width="1px"/>
    <path d="m54.75,60.38c4.22,1.35 5.14,0.11 8,-1.94c1.9,-1.91 0.68,-6.13 -2,-8.38c-2.57,0.68 -8.65,5.29 -6,10.32z" fill="#ffffff" fill-rule="evenodd" id="path110" stroke="#000000" stroke-width="1px"/>
    <path d="m55.5,53.94c-0.02,-0.02 3.09,1.55 3.94,6.19" fill="none" fill-opacity="0.75" fill-rule="evenodd" id="path112" stroke="#000000" stroke-width="1px"/>
    <path d="m57.87,52.06c1.1,0.99 3.51,2.54 4.38,6.57" fill="none" fill-opacity="0.75" fill-rule="evenodd" id="path114" stroke="#000000" stroke-width="1px"/>
    <path d="m65.81,30.63c0.93,-5.54 0.94,-5.61 2.69,-7.32c4.1,-2.61 -0.83,12.56 7.63,7.19c0.41,0.7 2.97,0.39 3.81,1.38c2.11,1.88 2.44,2.72 1.87,3.56c-2.12,3.58 -2.96,1.97 -5.81,2.94c-0.59,1.72 -2.02,2.11 -6.87,2.18c-3.15,0.28 -3.62,2.33 -5,3.63c-1.53,1.19 -3.15,3.59 -9.32,1.56c1.45,-4.12 0.67,-8 4.07,-10.37c5.13,0.76 5.67,-2.23 6.93,-4.75z" fill="#ffffff" fill-rule="evenodd" id="path116" stroke="#000000" stroke-width="1px"/>
    <path d="m70.25,34.56c1.18,2.1 2.76,3.44 6.25,3.57" fill="none" fill-opacity="0.75" fill-rule="evenodd" id="path118" stroke="#000000" stroke-width="1px"/>
    <ellipse cx="77.37" cy="25.81" fill="#0079bb" fill-rule="evenodd" id="ellipse120" rx="3.38" ry="5.38" stroke="#000000" stroke-width="1px"/>
    <ellipse cx="73.44" cy="26.5" fill="#0079bb" fill-rule="evenodd" id="ellipse122" rx="3.38" ry="5.38" stroke="#000000" stroke-width="1px"/>
    <ellipse cx="74.62" cy="27.22" fill="#000000" id="ellipse124" rx="1.44" ry="2.22"/>
    <ellipse cx="78.75" cy="26.28" fill="#000000" id="ellipse126" rx="1.31" ry="2.13"/>
    <g id="g140">
     <g id="g138">
      <ellipse cx="74.64" cy="27.22" id="ellipse128" rx="1.44" ry="2.22"/>
      <ellipse cx="78.74" cy="26.28" id="ellipse130" rx="1.31" ry="2.12"/>
      <path d="m36.44,40.83q-0.93,0.43 -2.04,0.75q-1.1,0.31 -2.13,0.31q-1.33,0 -2.44,-0.36t-1.89,-1.1q-0.79,-0.75 -1.22,-1.85q-0.43,-1.12 -0.43,-2.61q0,-2.73 1.59,-4.31q1.6,-1.58 4.38,-1.58q0.97,0 1.98,0.23q1.02,0.23 2.19,0.79l0,1.8l-0.14,0q-0.23,-0.18 -0.68,-0.48q-0.46,-0.3 -0.89,-0.5q-0.53,-0.23 -1.2,-0.39q-0.67,-0.16 -1.52,-0.16q-1.91,0 -3.03,1.23q-1.11,1.22 -1.11,3.32q0,2.21 1.16,3.44q1.16,1.22 3.17,1.22q0.73,0 1.46,-0.14q0.73,-0.15 1.29,-0.38l0,-2.79l-3.05,0l0,-1.33l4.55,0l0,4.89z" id="path132"/>
      <path d="m40.54,31.73l-1.62,0l0,-1.49l1.62,0l0,1.49zm-0.09,9.98l-1.44,0l0,-8.55l1.44,0l0,8.55z" id="path134"/>
      <path d="m47.64,41.63q-0.41,0.11 -0.89,0.18q-0.47,0.06 -0.85,0.06q-1.31,0 -1.99,-0.7q-0.68,-0.7 -0.68,-2.26l0,-4.55l-0.97,0l0,-1.21l0.97,0l0,-2.46l1.44,0l0,2.46l2.97,0l0,1.21l-2.97,0l0,3.89q0,0.67 0.03,1.06q0.03,0.38 0.22,0.7q0.16,0.31 0.46,0.46q0.29,0.13 0.9,0.13q0.35,0 0.73,-0.1q0.39,-0.1 0.55,-0.17l0.08,0l0,1.29l0,0.01z" id="path136"/>
     </g>
    </g>
   </g>
  </g>
 </g>
</svg>